<?xml version="1.0" encoding="utf-8"?>
<svg width="34px" height="34px" viewBox="0 0 68 68" version="1.1" xmlns:xlink="http://www.w3.org/1999/xlink" xmlns="http://www.w3.org/2000/svg">
  <desc>Created with Lunacy</desc>
  <g id="Github-icon">
    <path d="M0 0L68 0L68 68L0 68L0 0Z" id="Background" fill="none" stroke="none" />
    <path d="M48.1667 24.0833C48.1667 37.4 37.4 48.1667 24.0833 48.1667C10.7667 48.1667 0 37.4 0 24.0833C0 10.7667 10.7667 0 24.0833 0C37.4 0 48.1667 10.7667 48.1667 24.0833L48.1667 24.0833Z" transform="translate(9.916626 9.916626)" id="Shape" fill="#EEEEEE" stroke="none" />
    <path d="M0.141667 1.41667C0 1.41667 0 1.41667 0 1.23958C0 1.0625 0 1.0625 0.141667 0.885415C1.275 0.531248 3.54167 0 4.81667 0C5.95 0 9.775 0.354167 9.91667 0.354167C10.0583 0.354167 10.0583 0.531251 10.0583 0.531251C10.0583 0.708335 9.91667 0.708335 9.91667 0.708335C9.91667 0.708335 6.09167 0.354167 4.95833 0.354167C3.4 0.708335 1.275 1.0625 0.141667 1.41667ZM45.9 1.69993C45.9 1.69993 44.0584 0.755488 42.5 0.755488L42.3584 0.755488C40.8 0.755488 38.25 1.46382 38.25 1.46382C38.1084 1.46382 38.1084 1.46382 38.1084 1.22771C38.1084 0.991595 38.1084 0.991595 38.25 0.991595C38.3917 0.991595 41.0834 0.283264 42.6417 0.283264C44.2 0.283264 46.0417 1.22771 46.1834 1.22771C46.325 1.22771 46.325 1.46382 46.325 1.69993C46.1361 1.54253 46.0732 1.59499 46.0102 1.64746C45.9787 1.6737 45.9473 1.69993 45.9 1.69993ZM0.566701 3.1167C0.566701 3.25837 0.708369 3.25837 0.708369 3.25837C0.708369 3.25837 2.6917 2.12504 4.8167 1.70004C6.65837 1.41671 10.625 1.8417 10.625 1.8417C10.625 1.8417 10.7667 1.8417 10.7667 1.70004C10.7667 1.70004 10.7667 1.55837 10.625 1.55837C10.5714 1.55837 10.391 1.54315 10.1211 1.52039C8.96508 1.42288 6.16819 1.18699 4.67504 1.4167C2.55003 1.70004 0.708369 2.83337 0.566701 2.83337L0.566701 3.1167ZM41.7917 1.88889C43.4917 1.88889 45.4751 2.83333 45.4751 2.83333C45.5459 2.83333 45.5813 2.77431 45.599 2.74479C45.6051 2.73459 45.6091 2.72792 45.6118 2.72842C45.6167 2.72938 45.6167 2.75604 45.6167 2.83316C45.6167 2.5971 45.6167 2.36111 45.4751 2.36111C45.4751 2.36111 43.6334 1.41667 41.7917 1.41667C40.5167 1.41667 37.5417 1.88889 37.4001 1.88889C37.2584 1.88889 37.2584 1.88889 37.2584 2.125C37.2584 2.36111 37.2584 2.36111 37.4001 2.36111C37.5417 2.36111 40.5167 1.88889 41.7917 1.88889ZM18.8416 14.0249L18.8416 21.8166L16.1499 21.8166C16.0083 21.3916 15.8666 20.8249 15.8666 20.2583L15.8666 14.7333C15.8666 11.7583 18.6999 7.3666 21.9583 7.3666L25.4999 7.3666C28.8999 7.3666 31.5916 11.6166 31.5916 14.7333L31.5916 20.2583C31.5916 20.9666 31.5916 21.3916 31.3083 21.8166L28.7583 21.8166L28.7583 14.0249C28.7583 13.5999 28.4749 13.3166 28.0499 13.3166C27.6249 13.3166 27.3416 13.5999 27.3416 14.0249L27.3416 21.8166L24.5083 21.8166L24.5083 12.6083C24.5083 12.1833 24.2249 11.8999 23.7999 11.8999C23.3749 11.8999 23.0916 12.1833 23.0916 12.6083L23.0916 21.8166L20.2583 21.8166L20.2583 14.0249C20.2583 13.5999 19.9749 13.3166 19.5499 13.3166C19.1249 13.3166 18.8416 13.5999 18.8416 14.0249Z" transform="translate(10.9082 36.2666)" id="Shape" fill="#455A64" fill-rule="evenodd" stroke="none" />
    <path d="M0 12.0417C0 5.80833 6.51666 0 14.5917 0C22.6667 0 29.1833 5.66667 29.1833 12.0417C29.1833 18.4167 24.5083 22.6667 14.5917 22.6667C4.675 22.6667 0 18.275 0 12.0417L0 12.0417Z" transform="translate(20.11658 21.25)" id="Shape" fill="#455A64" stroke="none" />
    <path d="M12.2413 3.25833C12.2413 3.25833 9.83299 0 5.44133 0C3.74133 1.7 4.87466 6.8 5.44133 8.21667L12.2413 3.25833ZM30.658 0C26.2663 0 23.858 3.25833 23.858 3.25833L30.658 8.21667C31.2247 6.8 32.358 1.7 30.658 0ZM7.84968 31.0249L11.8163 31.0249L12.6664 26.7749C11.533 28.0499 9.54968 28.0499 7.70802 28.0499C5.86635 28.0499 4.73302 26.4916 3.74135 25.2166C2.74968 23.9416 1.47468 23.7999 0.766351 23.6583C0.0580177 23.6583 -0.225315 23.9416 0.199685 24.2249C2.32468 25.6416 3.03302 27.3416 3.88302 28.8999C4.59135 30.3166 6.14968 31.0249 7.84968 31.0249Z" transform="translate(16.65869 19.83337)" id="Shape" fill="#455A64" fill-rule="evenodd" stroke="none" />
    <path d="M0 28.3333C0 12.75 12.75 0 28.3333 0C43.9167 0 56.6667 12.75 56.6667 28.3333C56.6667 43.9167 43.9167 56.6667 28.3333 56.6667C12.75 56.6667 0 43.9167 0 28.3333ZM5.66667 28.3333C5.66667 40.8 15.8667 51 28.3333 51C40.8 51 51 40.8 51 28.3333C51 15.8667 40.8 5.66667 28.3333 5.66667C15.8667 5.66667 5.66667 15.8667 5.66667 28.3333Z" transform="translate(5.666626 5.666626)" id="Shape" fill="#00BCD4" fill-rule="evenodd" stroke="none" />
  </g>
</svg>